<svg width="20" height="20" viewBox="0 0 20 20" fill="none" xmlns="http://www.w3.org/2000/svg">
<path d="M17.5 0H2.5C1.11938 0 0 1.11938 0 2.5V17.5C0 18.8806 1.11938 20 2.5 20H17.5C18.8806 20 20 18.8806 20 17.5V2.5C20 1.11938 18.8806 0 17.5 0ZM18.75 17.5C18.75 18.1906 18.1906 18.75 17.5 18.75H2.5C1.80938 18.75 1.25 18.1906 1.25 17.5V2.5C1.25 1.80938 1.80938 1.25 2.5 1.25H17.5C18.1906 1.25 18.75 1.81 18.75 2.5V17.5ZM13.7669 5.66748C13.4681 5.495 13.0856 5.59748 12.9131 5.89624L8.91624 12.8193L6.68 10.7569C6.44376 10.505 6.04876 10.4919 5.79624 10.7281C5.54435 10.9643 5.53124 11.3593 5.76748 11.6112L8.62497 14.2468C8.86121 14.4987 9.25621 14.5118 9.50873 14.2756C9.58497 14.2043 13.9962 6.52121 13.9962 6.52121C14.1681 6.22252 14.0656 5.84 13.7669 5.66748Z" fill="#BDBDBD"/>
</svg>
