<svg width="30" height="36" viewBox="0 0 30 36" fill="none" xmlns="http://www.w3.org/2000/svg">
<path d="M14.9997 0C7.17253 0 0.804688 6.36785 0.804688 14.195C0.804688 17.0798 1.66538 19.8568 3.29382 22.2258C4.79676 24.4124 6.85534 26.1191 9.26747 27.184L13.8886 35.352C14.1151 35.7525 14.5396 36 14.9996 36C15.4596 36 15.8841 35.7525 16.1106 35.352L20.7317 27.184C23.1439 26.1191 25.2025 24.4124 26.7054 22.2258C28.334 19.8569 29.1947 17.0798 29.1947 14.195C29.1947 6.36785 22.8268 0 14.9997 0ZM19.3567 24.9937C19.089 25.1019 18.8658 25.2976 18.7237 25.5488L14.9997 32.1311L11.2757 25.5488C11.1336 25.2976 10.9104 25.1019 10.6428 24.9937C6.21728 23.2061 3.35775 18.9674 3.35775 14.195C3.35775 7.7756 8.58029 2.55306 14.9997 2.55306C21.4191 2.55306 26.6417 7.7756 26.6417 14.195C26.6417 18.9674 23.7821 23.2061 19.3567 24.9937Z" fill="#181818"/>
<path d="M15.0001 8.75792C12.0438 8.75792 9.63867 11.163 9.63867 14.1194C9.63867 17.0757 12.0438 19.4808 15.0001 19.4808C17.9564 19.4808 20.3615 17.0757 20.3615 14.1194C20.3615 11.163 17.9564 8.75792 15.0001 8.75792ZM15.0001 16.9277C13.4515 16.9277 12.1917 15.6679 12.1917 14.1194C12.1917 12.5708 13.4515 11.311 15.0001 11.311C16.5487 11.311 17.8085 12.5708 17.8085 14.1194C17.8085 15.6679 16.5487 16.9277 15.0001 16.9277Z" fill="#181818"/>
</svg>
